<svg id="Layer_1" data-name="Layer 1" xmlns="http://www.w3.org/2000/svg" viewBox="0 0 432 650" width="28" height="42"><defs><style>.cls-1{fill:#2181ff;}.cls-2{fill:#fff;}.cls-3{fill:#3595ff;}.cls-4{fill:#0666e4;}</style></defs><g id="Object"><path class="cls-1" d="M432,216c0,119.28-216,434-216,434S0,335.26,0,216,96.7,0,216,0,432,96.7,432,216Z"/><circle class="cls-2" cx="215.98" cy="206.46" r="101.52"/><path class="cls-3" d="M37,235C37,131.33,121,47.33,224.64,47.33a187.29,187.29,0,0,1,148.72,73.25A187.54,187.54,0,0,0,210.67,26.47c-103.62,0-187.62,84-187.62,187.62A186.71,186.71,0,0,0,62,328.46,186.75,186.75,0,0,1,37,235Z"/><path class="cls-4" d="M165.05,567.39C194.48,616.7,216,650,216,650S432,335.26,432,216c0-6.26-.32-12.45-.85-18.57a524.46,524.46,0,0,1-35.36,96.19C354.87,378.7,294.41,433.22,230,502.26,209.26,524.52,187.65,546.53,165.05,567.39Z"/></g></svg>