<?xml version="1.0" encoding="utf-8"?>
<!-- Generator: Adobe Illustrator 25.2.3, SVG Export Plug-In . SVG Version: 6.00 Build 0)  -->
<svg version="1.1" id="layer" xmlns="http://www.w3.org/2000/svg" xmlns:xlink="http://www.w3.org/1999/xlink" x="0px" y="0px"
	 viewBox="0 0 512 512" style="enable-background:new 0 0 512 512;" xml:space="preserve">
<style type="text/css">
	.st0{fill:#FFFFFF;}
	.st1{fill:#2181FF;}
	.st2{fill:none;}
</style>
<ellipse class="st0" cx="301.3" cy="255.5" rx="119.6" ry="108.8"/>
<path class="st1" d="M438.8,249c12.4,5.1,41.7,2.6,39,22.4c-2.9,20.8-26-8.2-37.6-0.8c-9.8,6.3,11,7.3,13,11.4
	c3.7,7.7-11.8,6.3-16.1,4.5c3.2,6.1,14.4,5.4,16.1,12.9c3.4,15.6-31.9,4.1-28.4,15.4c1.6,5.4,12.3,2.8,13.6,8.5
	c2,9.3-8.7,0.9-11.6,0.7c-6.8-0.5-4.9,7.9-4.5,12c0.5,6.4,3,10.5,10.4,12.5c5.1,1.4,11.9-0.3,13.3,5.9c2.9,12.6-12.3-0.6-16.4-2
	c-5.7-2-9.9,0-8.1,5.9c1.2,3.7,7.3,8.1,10.9,10.1c10.3,5.8,32.2,12.6,32.9,25.7c0.9,17.8-28.9,0.7-33.6-5.2
	c-8.5-10.7-9.8-32.2-25.1-37.3c-5.6-1.9-12-1.2-17.7,0.3c-8.5,2.2-5,2.5-7.8,8.1c-3.2,6.6-10.4,1.1-14.4,5.2c-1.6,1.6,0.8,5.1-0.8,7
	c-1.9,2.2-3.7,1-6.3,1.7c-7.3,2.1-10.2,3.6-7.4,10.7c1.6,4.2,6.8,13.7-4.4,12.2c-7.1-0.9-9.1-11.7-15.7-14.8
	c-6.9-3.3-27.2-0.3-29.1,8.1c-1,4.3,7.3,8.5,9.9,11.4c10.4,11.9-7.2,17.7-13.2,6.8c-3.4-6.1,3.9-23.1-6.1-25c-10-1.9-8.3,9.2-8,14
	c0.5,8.4-1.2,14.5,3.5,22.5c5.6,9.5,23.3,26.4,11.4,37.1c-11.1,10-40.2,1.4-41.1-13c-0.9-13.4,19.3-19.4,19.6-32.9
	c0.1-4.7-2.5-9-3.4-13.5c-0.7-3.7,0.3-7.6-0.4-11.2c-1.4-7-7.6-6.3-11.8-1.4c-1.8,2.1-2,5.1-3.8,7.4c-1.6,2-4.9,2.5-5.3,5.4
	c-0.5,3.5,4.6,7.2,6.2,10.1c5.5,9.8-5.7,13.5-15.4,9.8c-13.3-5.1-8.3-15.4-5.2-24.9c3.1-9.5,1.3-22.9-12.1-25.8
	c-10.1-2.2-12.5,8.9-19.7,9.7c-9,1-4.7-5.5-5.4-9.6c-0.7-3.9-3.9-7-4.6-11.3c-18.7-3.9-16.3,20.5-31.4,23.9
	c-10.5,2.3-14.4-5.1-11.9-13.2c3.3-10.5,13.2-18.7,22.3-25.3c5.2-3.7,9.8-6.3,8.7-12.8c-0.9-4.9-6.2-8.3-7-13.1
	c-0.6-3.8,2.4-6.6-0.7-9.9c-3-3.3-7.9-1.6-10-6.2c-2.1-4.8,2.1-7.1-4.3-10.3c-7.9-3.9-25.4-6-33.4-2.1
	c-14.1,6.8-26.3,20.2-43.7,20.1c-16.1-0.1-20.6-14.1-10.9-24.3c15.1-15.8,40-11.6,60.7-12.3c8.5-0.3,22.5-0.6,25.2-9.9
	c2.7-9.2-10.1-13.5-18.5-11.7c-7.8,1.6-25.9,9.4-23.6-5.1c2.3-14.7,16.5-4.1,24.6-1.6c3.9,1.2,19.3,1.8,20.6-3.5
	c1.4-5.9-7.3-5.6-3.2-12.2c2.1-3.4,8.1-3.5,1-7.3c-6.4-3.4-16.3-0.4-22.3-4c-7.1-4.1-1.6-9,5-8.2c5,0.6,9.2,4.8,14.4,5.3
	c6.6,0.7,14.1-4.4,12.1-11c-1.8-6.1-11.8-7-13.8-13.4c-2.1-7.1,4.1-8.4,10.1-5c4.2,2.4,8.5,7.6,14.4,5.9c6.3-1.8,2.8-3.2,3.1-7.1
	c0.6-8,14.6,0,11.8-8.1c-3.3,0-7.1-1.5-6.8-4.9c0.3-4.6,3.1-2,6.2-2.5c3.2-0.5,6.3,1.8,6.9-3c1.3-9.6-49-41.3-25.3-47.7
	c16.6-4.5,24.5,20.8,32.7,28.3c10.6,9.7,7.6-6.5,15.9-5.2c3.9,0.6,3.1,5.8,8.2,5.6c15.3-0.8-10.6-17.2-12.8-18.7
	c-5.5-3.8-13.2-9.5-10.9-16.6c1.7-5.4,7.2-7.1,12.4-4.2c11.2,6.3,10.2,23.2,22.4,29.7c3.6,2,8.7-0.8,9.8-3.7
	c1.1-3.1-2.9-7.2-3.4-10.2c-1.3-7.9,7-6.2,9.7,0c1.6,3.8,3.6,14.3,11.7,10.5c3.7-1.8,3.2-9.3,7.6-10.6c7.5-2.2,2.9,11.7,12,8.1
	c7.9-3.1-5.6-26.1-6.2-31.8c-0.8-7.1-0.6-16.7,6.3-21.5c6.2-4.3,12.7-2.4,15.5,3.8c6.3,13.7-6.9,30.1-0.7,43.5
	c2.4,5.1,10.6,2.8,15.3,2.5c4.2-7.5-9.9-11-8.7-18.8c7.1-2.6,10.4,1.2,12.3,6.4c2.5,6.7,10.5,20.2,19.6,21c11,0.9,9.4-11.6,8.2-18
	c-2.1-11.5-2.7-20.2,10.1-27.3c14.1-7.8,17.9,1.3,13.2,12.4c-3.7,8.9-15.1,19-15.1,28.7c0,4.3,3.7,12.2,8.7,13.6
	c5.8,1.7,12.3-5,16.8-1.1c4.7,4.2-0.5,7.3,7.1,10c3.3,1.2,6.7,1.5,9.2,3.8c3.1,2.9,2.8,7.2,6.3,9.7c3.8,2.7,21.1,3.9,12.4,11.3
	c-2.8,2.4-8.5-0.9-11,2.2c-6.1,7.6,15,8.5,19.1,8.2c16.5-1,19.7-12.3,31.8-19.4c12.7-7.4,24.6,5.4,18.1,16.6
	c-8.3,14.2-30.8,8.7-45.1,10c-5.4,0.5-27.2,7.4-14.9,14.5c4.4,2.6,20.6-3,17.2,6.5c-2.5,6.9-13.3,3.8-7.3,11.2
	c1.9,2.4,5.7,2.4,6.4,5.8c0.6,3-3,5.2-3.9,7.8C432.3,244.7,434.6,247.3,438.8,249z M227.6,15.5c-9.4-19.7-10-0.4-8.1,10.1
	c2.8,15.1,7.9,29.4,15.6,43.1c4.1,7.3,10.4,28.4,20,31.3c5.2-14-7.6-30.9-14.5-43C233.2,44.1,234,28.8,227.6,15.5z M259.9,36
	c-1.3-3.3,1.5-10.9-3-13.1c-3.6-1.8-0.7,24.8-0.3,26.7c0.8,3.7,1.3,12.8,6,13.7c11.7,2.2,9.8-14.8,5.1-19.3
	C263.9,40.4,261.9,41.1,259.9,36z M268.1,70.1c-15.4-0.7-4,29.3,1.3,6.5C270.1,73.6,274.7,70.4,268.1,70.1z M127.6,123.8
	c-3.9-6.2-15.4-27.8-27.6-21.7c-18.2,9.1,22,34.7,27.3,40c9.3,9.3,20.5,21.8,36.1,21c2.2-0.1-15.6-15-16.6-15.9
	C139.3,140.1,132.8,132.2,127.6,123.8z M94.2,163.6c-11.6,7.8,10.2,18.7,18.3,16.8C132.4,175.8,107.7,154.5,94.2,163.6z M59.6,163.1
	c-4.8,7.4,15,16,19.4,12.4C82.4,172.8,68,150.1,59.6,163.1z M129.6,213.6c-8.6-7.4-17.4-9.3-29.2-10.7c-8.8-1-15.4,2.6-24.3,1.4
	c-12.3-1.6-54.5-18.9-57.9-1c12.6,4.6,25.7-0.9,38.4,1.7c11.1,2.3,18.7,11.2,30.4,12.1c10,0.8,19.8-2.7,30.1-1.4
	c2.2,0.3,10.8,3.4,12.3,2c3.7-3.5-4.6-7.3-7.5-7.5L129.6,213.6z M22.7,226.9c-14,4.3-19.4,19.2-14.7,31.1c7.2,18.3,40,8.3,54.4,5.2
	c7.7-1.6,57.9-10.3,38.3-22.4c-9.9-6.2-24.5-5-35.5-9.3C52.3,226.5,36.5,222.6,22.7,226.9z M345.5,32.9c2.7-5.3,13.9-22.1,4.3-25.2
	c-9.2-2.9-22.8,14.7-24.7,21c-3.4,11.3,1.7,22.4,2.1,33.7c0.3,8.4-4,20.9,2.5,28c5.8-7.8,4.5-18.6,5.9-27.5
	c1.1-6.7,2.8-13.2,5.2-19.5C342.2,39.9,343.7,36.4,345.5,32.9z M115.7,328.7c-1.5,5-21.9,19.9-27.5,18.6
	c-11.8-2.8,8.1-18.1,12.6-20.3C105.8,324.4,118.2,320.3,115.7,328.7z M147.1,322.3c-12.1,11.1-30.5-5.3-12.3-10.3
	C142.9,309.8,156.1,314,147.1,322.3z M130.5,346.9c-9.2,8.5-23.4-4.1-9.4-7.9C127.3,337.3,137.4,340.5,130.5,346.9z M410.6,73.8
	c0.2-6.4-1.7-23.5,9.7-23.9c10.8-0.3,3.4,14.3,2.1,18.6c-3.7,12.9,10.6,2.3,13.8,10.3c1.6,4.1-2.5,6.7,3.9,8.5
	c1.9,0.5,4.4,0.2,5.7,2c1.3,1.9-0.5,5.6-1.2,7.4c-2.9,7-8.3,9-16.1,9.7c-2.6,0.2-7.5-0.7-9.4,1.4c-2,2.2,0.6,3.2,1.3,5.2
	c0.7,2,0.2,5.4-1.9,6.7c-4.6,2.8-8.4-4.1-12.1-4.5c-4.7-0.5-2.8,5.4-2.6,7.6c0.4,3.4-0.8,10.5-5.6,5.5c-2.9-3-2.8-7.2-1.9-10.9
	c0.4-1.8,1.5-3.7,1.9-5.5c0.4-2.5-0.2-2.6-1.8-4.9c-3.2-4.8,3.7-9.8,6.7-13C407.9,88.8,410.3,80.6,410.6,73.8
	C410.6,73.8,410.6,73.8,410.6,73.8z M502.9,138.9c6.2,5.4-2.8,10.9-8.2,6.5C488.7,140.6,496.8,133.7,502.9,138.9z M419.3,142.2
	c-7.1-3.3-1.3-11.8,6.1-8.2c1.3,0.7,2.2,1.4,2.7,2.3c-0.2-1.5,0.3-3.2,2-4.3c2.5-1.8,4.4-0.4,6.4,0.8c1.7,1.1,3.5,2.1,6,0.9
	c2.9-1.3,5.6-3,9-2.8c1.7,0.1,5.1,1,3.8,3c-1,1.6-5.2,1-6.8,1.2c-2.2,0.2-3.1,0.5-4.7,1.8c-2.7,2.1-7.7,4.2-11.5,3.4
	c-1.7-0.4-2.9-1.3-3.6-2.5C428.8,141.2,423.9,144.3,419.3,142.2z M478.7,126.2c4.2,2.7,5.1,9.4,4.6,13.6c-0.3,2.4-1.5,6.4-4.5,7
	c-5,0.9-12.7-6.1-15.4-9.5c-1.5-2-4.5-5.7-1.4-7.4c0.3-0.2,0.6-0.3,0.9-0.4c2.6-0.8,6.1,0.2,8.5-1.4
	C473.8,126.3,475.5,124.1,478.7,126.2z M458.3,329.4c-5.7-2.7-0.4-8.3,4.4-6.1C468,325.6,463.8,332,458.3,329.4z M478.5,334.2
	c-3.6-1.2-5.7-5.8-6.4-8.9c-0.3-1.7-0.4-4.9,1.7-5.8c3.4-1.5,10.5,2.1,13.2,4c1.5,1.1,4.5,3.3,2.7,5.1c-0.2,0.2-0.3,0.3-0.5,0.4
	c-1.7,1.1-4.4,0.9-5.8,2.5C481.9,333.2,481.2,335.1,478.5,334.2z M150.3,421.2c5.2-8.4,21.2-40.3,34.5-38.9
	c-0.2,4.2-5.2,7.8-7.4,11.6c-4.3,7.6-6.4,16.3-9.6,24.3c-7,17.2-19.2,31.6-35.4,42.8c-6.3,4.3-28,15-16.4,0
	C126.8,447.1,141,436.3,150.3,421.2z M161.7,456.6c-3.4-4.6,5.8-23.3,11.5-23.6c7.8-0.5,3.5,18.6,1.4,22.7
	C172.4,459.9,165.4,461.5,161.7,456.6z M120.1,489.2c-0.6-3.6,8-18.2,12-18.7c8.5-1,0.3,13.7-1.8,16.2
	C127.8,489.5,121.1,495.2,120.1,489.2z M101.8,501c4.3-10.1,21.4-4,11.1,3.6C108.4,508,98.6,508.5,101.8,501z M108.2,487.9
	c3.3-7.8,16.4-3.1,8.5,2.8C113.3,493.3,105.7,493.7,108.2,487.9z M351.2,448.3c-5.5-9.3-9.3-18.7-12.4-28.7
	c-3.6-11.9-11.3-3-11.6,4.4c-0.2,3.7,0.5,7.4,0,11.1c-0.4,2.7-2.6,6-2,8.7c1.9,7.8,7.9,2.8,12.6,4.1c7.7,2.2-1.6,26.2,11.2,24
	C360.4,470,354.2,453.3,351.2,448.3z M495,240.9c-4.9-5.3-13.9-2.8-17.8,2.1C465.7,257.7,505.3,252.1,495,240.9z M376.5,420.5
	c5.4,0.9,7.2-7,3.4-9.3c-4.3-2.6-9,2.9-7.5,6.7C372.8,419.1,374.1,420.1,376.5,420.5z M327.3,471.2c5.4,0.9,7.2-7,3.4-9.3
	c-4.3-2.6-9,2.9-7.5,6.7C323.7,469.8,324.9,470.8,327.3,471.2z"/>
<g>
	<rect x="209.5" y="189.7" class="st2" width="292.2" height="202.2"/>
	<path class="st0" d="M237.2,226.9c-0.6,0-1.7,0.1-3.3,0.4c-1.6,0.3-3.5,0.6-5.6,0.9c-2.1,0.4-4.4,0.8-6.8,1.2
		c-2.4,0.5-4.6,0.9-6.7,1.2c-2.1,0.4-3.9,0.7-5.4,0.9c-1.5,0.3-2.6,0.4-3.1,0.4c-4.8,0-7.2-2.5-7.2-7.5c0-1.4,0.1-2.7,0.4-4
		c0.3-1.3,0.7-2.5,1.3-3.7c0.6-1.1,1.5-2.1,2.6-2.8c1.1-0.8,2.4-1.3,4.1-1.6c8.4-1.3,16.7-2.6,25-4.1c8.3-1.4,16.7-2.9,25.1-4.5
		c1.9-0.4,3.5-0.7,5-1s3.2-0.8,5-1.3c2-0.6,4.2-1.1,6.6-1.7s4.7-1,7.1-1.5c2.4-0.4,4.7-0.8,7-1.1c2.3-0.3,4.3-0.4,6.2-0.4
		c2.3,0,4,0.7,5.2,2.2c1.2,1.5,1.8,3.5,1.8,6.2c0,1.4-0.1,2.7-0.3,3.9c-0.2,1.3-0.6,2.4-1.2,3.4c-0.6,1-1.4,1.8-2.4,2.5
		c-1,0.6-2.3,1-3.9,1.2c-4.1,0.6-8.5,1.3-13.1,2.1c-4.7,0.8-8.7,1.7-12.1,2.7c-1.4,0.4-2.5,1.1-3.2,2.1c-0.7,1-1.2,2.2-1.4,3.6
		c-0.2,1.4-0.3,2.7-0.4,4.1c0,1.4-0.1,2.7-0.1,4c0,3,0.1,6,0.4,9c0.2,3,0.5,6,0.7,9c0.6,10.3,1.6,20.5,3,30.6
		c1.3,10.1,2.8,20.3,4.4,30.6c0.1,0.4,0.2,0.7,0.2,1.1c0,0.4,0,0.7,0,1.1c0,3.9-2.2,6.7-6.7,8.4l-4.8,1.5c-1.3,0.4-2.5,0.6-3.8,0.6
		c-1.9,0-3.4-0.6-4.5-1.8c-1.1-1.2-1.9-2.9-2.3-5.2c-2-12.3-3.8-24.6-5.3-36.8c-1.5-12.2-2.5-24.5-2.9-36.9c-0.1-2-0.3-4.2-0.3-6.6
		c-0.1-2.4-0.1-4.8-0.1-7.3C241.6,228.7,240.2,226.9,237.2,226.9z"/>
	<path class="st0" d="M335.6,272.2c0,4.3,1.1,8.3,3.2,12c2.1,3.7,4.9,6.9,8.3,9.7c3.4,2.8,7.4,4.9,11.8,6.4c4.4,1.5,9,2.3,13.6,2.3
		c1.4,0,2.9-0.1,4.4-0.4c1.5-0.2,2.9-0.7,4.1-1.3c1.2-0.6,2.2-1.5,3-2.5c0.8-1,1.2-2.3,1.2-3.9c0-3-1.1-6-3.2-8.9
		c-2.1-2.9-4.9-5.9-8.3-8.8s-7.4-5.8-11.8-8.7c-4.4-2.9-9-5.8-13.5-8.6c-4.6-2.9-9.1-5.7-13.5-8.6c-4.4-2.9-8.4-5.8-11.8-8.7
		s-6.2-5.8-8.3-8.8c-2.1-3-3.2-6-3.2-9c0-2.9,0.7-5.5,2.2-8c1.5-2.5,3.4-4.7,5.9-6.7c2.4-2,5.3-3.8,8.5-5.4c3.2-1.6,6.6-2.9,10.1-4
		c3.5-1.1,7-1.9,10.6-2.4s6.9-0.8,10.2-0.8c2.4,0,5,0.1,7.8,0.2c2.8,0.1,5.5,0.4,7.9,1s4.5,1.3,6.2,2.4c1.6,1.1,2.5,2.6,2.5,4.6
		c0,0.6-0.1,1.5-0.3,2.4s-0.8,2.6-1.8,4.8c-1,2.1-2.2,3.6-3.5,4.7c-1.3,1-3,1.6-5.1,1.6c-2.9,0-6-0.3-9.3-1c-3.3-0.7-6.5-1-9.8-1
		c-1.8,0-3.6,0.1-5.4,0.3c-1.8,0.2-3.5,0.5-5,1c-1.5,0.5-2.7,1.1-3.7,2c-0.9,0.9-1.4,2-1.4,3.4c0,1.4,1,2.9,3,4.6
		c2,1.7,4.6,3.6,7.8,5.7c3.3,2.1,7,4.4,11.1,6.8c4.2,2.5,8.4,5.1,12.7,7.9c4.3,2.8,8.6,5.8,12.7,9c4.2,3.2,7.9,6.6,11.1,10.1
		c3.3,3.5,5.9,7.3,7.8,11.2c2,3.9,3,8,3,12.2c0,5.2-1.2,9.7-3.5,13.6c-2.4,3.9-5.4,7.2-9.1,9.9c-3.7,2.6-7.8,4.6-12.4,6
		c-4.5,1.3-8.9,2-13.2,2c-4.4,0-8.8-0.5-13.3-1.6c-4.5-1-8.8-2.5-12.9-4.4c-4.2-1.9-8-4.2-11.7-6.9c-3.6-2.7-6.8-5.7-9.4-9
		c-2.7-3.3-4.7-6.9-6.3-10.8c-1.5-3.9-2.3-7.9-2.3-12.1c0-1.8,0.1-3.6,0.4-5.4c0.2-1.8,0.7-3.4,1.3-4.8s1.5-2.5,2.7-3.4
		c1.1-0.9,2.6-1.3,4.4-1.3c0.6,0,1.2,0.1,1.9,0.2c0.7,0.1,2,0.4,3.8,1c2.1,0.6,3.9,1.7,5.5,3.1S335.6,269.9,335.6,272.2z"/>
</g>
</svg>
