<?xml version="1.0" encoding="utf-8"?>
<!-- Generator: Adobe Illustrator 25.2.3, SVG Export Plug-In . SVG Version: 6.00 Build 0)  -->
<svg version="1.1" id="Capa_1" xmlns="http://www.w3.org/2000/svg" xmlns:xlink="http://www.w3.org/1999/xlink" x="0px" y="0px"
	 viewBox="0 0 32.3 32.3" style="enable-background:new 0 0 32.3 32.3;" xml:space="preserve">
<path d="M23.9,27c0.6,0,1.2-0.2,1.6-0.5c1-0.7,1.2-1.9,0.6-2.9l-0.3-0.3c-2.4-3.7-5.5-7-9-10c-0.9-0.7-1.8-1.4-2.7-2.2l0-0.1
	c0.1-0.8-0.1-1.5-0.7-2.1c-0.9-1-2.1-1.2-3.1-1.3c-1-0.1-2-0.1-2.9-0.9L6.9,6.1l0,0.8c-0.2,1.8,0.4,4.7,1.5,5.9
	c0.5,0.6,1.3,0.9,2.2,1l0.1,0c0.6,0.9,1.2,1.9,1.9,2.8c2.6,3.6,5.8,6.9,9.4,9.7l0.4,0.3C22.7,26.8,23.3,27,23.9,27z M8.9,12.3
	c-0.8-0.9-1.4-3-1.4-4.6c0.9,0.5,1.9,0.6,2.6,0.7c0.9,0.1,1.9,0.1,2.7,1c0.4,0.4,0.6,1,0.5,1.6c-0.1,0.6-0.4,1.1-0.9,1.5
	c-0.5,0.4-1.2,0.6-1.8,0.6C10,13,9.3,12.7,8.9,12.3z M12.9,13.1c0.4-0.3,0.8-0.7,1-1.1c0.7,0.6,1.6,1.2,2.2,1.8
	c-0.2,0.6-0.6,1.1-1.1,1.6S13.9,16,13.2,16c-0.6-0.7-1-1.5-1.5-2.3C12,13.6,12.5,13.4,12.9,13.1z M22.9,26l-0.4-0.3
	C19,23,16.1,20,13.6,16.6c0.7-0.1,1.3-0.4,2-0.8c0.5-0.4,1-0.9,1.3-1.6c3.3,2.8,6.1,6,8.3,9.4l0.3,0.3c0.4,0.6,0.2,1.4-0.4,1.9
	c-0.3,0.3-0.7,0.4-1.2,0.3C23.5,26.4,23.1,26.3,22.9,26z"/>
</svg>
