<?xml version="1.0" encoding="utf-8"?>
<!-- Generator: Adobe Illustrator 25.2.3, SVG Export Plug-In . SVG Version: 6.00 Build 0)  -->
<svg version="1.1" id="Capa_1" xmlns="http://www.w3.org/2000/svg" xmlns:xlink="http://www.w3.org/1999/xlink" x="0px" y="0px"
	 viewBox="0 0 32.3 32.3" style="enable-background:new 0 0 32.3 32.3;" xml:space="preserve">
<style type="text/css">
	.st0{fill:#EEEEEE;}
	.st1{fill:#D8A576;}
</style>
<g id="XMLID_1_">
	<g>
		<path class="st0" d="M13.9,12c0.7,0.6,1.6,1.2,2.2,1.8c-0.2,0.6-0.6,1.1-1.1,1.6S13.9,16,13.2,16c-0.6-0.7-1-1.5-1.5-2.3
			c0.3-0.1,0.8-0.3,1.2-0.6C13.3,12.8,13.7,12.4,13.9,12z"/>
		<path class="st1" d="M16.9,14.2c3.3,2.8,6.1,6,8.3,9.4l0.3,0.3c0.4,0.6,0.2,1.4-0.4,1.9c-0.3,0.3-0.7,0.4-1.2,0.3
			c-0.4,0.3-0.8,0.2-1-0.1l-0.4-0.3C19,23,16.1,20,13.6,16.6c0.7-0.1,1.3-0.4,2-0.8C16.1,15.4,16.6,14.9,16.9,14.2z"/>
		<path d="M15,15.4c0.5-0.5,0.9-1,1.1-1.6c-0.6-0.6-1.5-1.2-2.2-1.8c-0.2,0.4-0.6,0.8-1,1.1c-0.4,0.3-0.9,0.5-1.2,0.6
			c0.5,0.8,0.9,1.6,1.5,2.3C13.9,16,14.5,15.9,15,15.4z M25.2,23.6c-2.2-3.4-5-6.6-8.3-9.4c-0.3,0.7-0.8,1.2-1.3,1.6
			c-0.7,0.4-1.3,0.7-2,0.8c2.5,3.4,5.4,6.4,8.9,9.1l0.4,0.3c0.2,0.3,0.6,0.4,1,0.1c0.5,0.1,0.9,0,1.2-0.3c0.6-0.5,0.8-1.3,0.4-1.9
			L25.2,23.6z M10.7,13.8L10.7,13.8c-1-0.1-1.8-0.4-2.3-1c-1.1-1.2-1.7-4.1-1.5-5.9V6.1l0.5,0.6c0.9,0.8,1.9,0.8,2.9,0.9
			s2.2,0.3,3.1,1.3c0.6,0.6,0.8,1.3,0.7,2.1v0.1c0.9,0.8,1.8,1.5,2.7,2.2c3.5,3,6.6,6.3,9,10l0.3,0.3c0.6,1,0.4,2.2-0.6,2.9
			c-0.4,0.3-1,0.5-1.6,0.5s-1.2-0.2-1.5-0.4L22,26.3c-3.6-2.8-6.8-6.1-9.4-9.7C11.9,15.7,11.3,14.7,10.7,13.8z M10.6,13.1
			c0.6,0,1.3-0.2,1.8-0.6s0.8-0.9,0.9-1.5c0.1-0.6-0.1-1.2-0.5-1.6c-0.8-0.9-1.8-0.9-2.7-1C9.4,8.3,8.4,8.2,7.5,7.7
			c0,1.6,0.6,3.7,1.4,4.6C9.3,12.7,10,13,10.6,13.1z"/>
	</g>
	<g>
	</g>
</g>
</svg>
